<svg width="81" height="81" viewBox="0 0 81 81" fill="none" xmlns="http://www.w3.org/2000/svg">
<g clip-path="url(#clip0_1546_410)">
<rect width="80.0392" height="80.0392" rx="40.0196" fill="white"/>
<circle cx="40.0196" cy="40.0196" r="40.0196" fill="#FACFBC"/>
<path d="M40.1234 10.0682C40.6276 10.1883 41.1319 10.2443 41.6441 10.1963C44.1734 9.98016 52.7776 9.88411 56.4914 18.0801C60.8615 27.7489 63.2387 30.3661 60.1892 41.6037C57.1397 52.8412 59.5729 52.417 61.1497 58.1398L61.1977 58.3078C62.0461 61.3893 59.5489 64.3668 56.3553 64.1027L50.2483 63.5824C49.8081 63.5424 49.3599 63.5744 48.9277 63.6625C45.454 64.3828 28.8619 67.6724 22.4987 66.0076C20.3217 65.4393 18.4568 64.751 16.904 64.0627C14.2467 62.8861 13.4143 59.5725 15.0631 57.1793C15.7594 56.1788 16.3037 55.0823 16.4158 54.0337C16.7519 50.8002 14.5028 47.8867 15.3913 42.404C16.872 33.2235 19.6814 34.072 20.1776 28.3412C20.4658 25.0595 25.4042 6.55448 40.1154 10.0682H40.1234Z" fill="#EB3F3A"/>
<path d="M40.1234 10.0682C40.6276 10.1883 41.1319 10.2443 41.6441 10.1963C44.1734 9.98016 52.7776 9.88411 56.4914 18.0801C60.8615 27.7489 63.2387 30.3661 60.1892 41.6037C57.1397 52.8412 59.5729 52.417 61.1497 58.1398L61.1977 58.3078C62.0461 61.3893 59.5489 64.3668 56.3553 64.1027L50.2483 63.5824C49.8081 63.5424 49.3599 63.5744 48.9277 63.6625C45.454 64.3828 28.8619 67.6724 22.4987 66.0076C20.3217 65.4393 18.4568 64.751 16.904 64.0627C14.2467 62.8861 13.4143 59.5725 15.0631 57.1793C15.7594 56.1788 16.3037 55.0823 16.4158 54.0337C16.7519 50.8002 14.5028 47.8867 15.3913 42.404C16.872 33.2235 19.6814 34.072 20.1776 28.3412C20.4658 25.0595 25.4042 6.55448 40.1154 10.0682H40.1234Z" fill="#EB3F3A"/>
<path d="M71.8672 70.274C65.24 68.0409 48.6799 59.4687 48.6799 59.4687L47.6554 51.6409H33.1523L32.2158 59.4687C32.2158 59.4687 15.6637 68.0409 9.02843 70.274C2.39318 72.5071 2.40118 83.8246 2.40118 83.8246H78.5025C78.5025 83.8246 78.5025 72.5071 71.8752 70.274H71.8672Z" fill="#FFB69F"/>
<path d="M40.4518 61.9431C45.0005 61.9431 48.6879 60.8358 48.6879 59.4699C48.6879 58.1039 45.0005 56.9966 40.4518 56.9966C35.9032 56.9966 32.2158 58.1039 32.2158 59.4699C32.2158 60.8358 35.9032 61.9431 40.4518 61.9431Z" fill="#FFB69F"/>
<path d="M32.5276 56.8753C32.5276 56.8753 43.7732 57.9078 47.7351 52.9774V47.3106L33.4801 48.6793L32.5276 56.8753V56.8753Z" fill="#FF9988"/>
<path d="M41.1243 53.9143C50.1906 53.9143 57.5403 44.5184 57.5403 32.928C57.5403 21.3376 50.1906 11.9417 41.1243 11.9417C32.0579 11.9417 24.7082 21.3376 24.7082 32.928C24.7082 44.5184 32.0579 53.9143 41.1243 53.9143Z" fill="#FFB69F"/>
<path d="M57.0199 30.9183C57.0199 30.9183 59.8533 30.5742 60.1094 33.2715C60.3656 35.9688 59.4611 38.0418 57.7803 38.9383C57.7803 38.9383 57.4201 39.1144 56.5957 39.2584L57.0199 30.9263V30.9183Z" fill="#FFB69F"/>
<path d="M25.0362 30.9183C25.0362 30.9183 22.2028 30.5742 21.9466 33.2715C21.6905 35.9688 22.595 38.0418 24.2758 38.9383C24.2758 38.9383 24.636 39.1144 25.4604 39.2584L25.0362 30.9263V30.9183Z" fill="#FFB69F"/>
<path d="M24.708 31.1113C24.708 31.1113 23.5154 11.7899 41.124 12.022V32.2399L24.708 31.1113V31.1113Z" fill="#FFB69F"/>
<path d="M57.5321 31.1113C57.5321 31.1113 58.7247 11.7899 41.116 12.022V32.2399L57.5321 31.1113V31.1113Z" fill="#FFB69F"/>
<path d="M29.8704 28.7185C32.5758 28.2302 34.9689 28.6144 36.1855 28.8466C36.5537 28.9186 36.9219 28.7425 37.034 28.4383C37.162 28.0942 36.9219 27.742 36.5057 27.662C35.121 27.3978 32.6318 26.9976 30.0225 27.9101C29.6223 28.0542 28.91 28.4464 29.1261 28.7585C29.2461 28.8706 29.5103 28.7745 29.8704 28.7105V28.7185Z" fill="#EB3F3A"/>
<path d="M52.546 28.7268C49.8407 28.2385 47.4475 28.6227 46.2309 28.8548C45.8627 28.9269 45.4945 28.7428 45.3825 28.4386C45.2544 28.0945 45.4945 27.7343 45.9107 27.6542C47.2954 27.3821 49.7846 26.9819 52.3939 27.9104C52.7941 28.0544 53.5065 28.4466 53.2904 28.7668C53.1703 28.8788 52.9062 28.7828 52.546 28.7188V28.7268Z" fill="#EB3F3A"/>
<path d="M48.8802 34.6082C49.4151 34.6082 49.8487 33.8556 49.8487 32.9273C49.8487 31.999 49.4151 31.2465 48.8802 31.2465C48.3453 31.2465 47.9117 31.999 47.9117 32.9273C47.9117 33.8556 48.3453 34.6082 48.8802 34.6082Z" fill="#441D39"/>
<path d="M34.3528 34.2642C34.8877 34.2642 35.3213 33.5117 35.3213 32.5834C35.3213 31.6551 34.8877 30.9026 34.3528 30.9026C33.8179 30.9026 33.3843 31.6551 33.3843 32.5834C33.3843 33.5117 33.8179 34.2642 34.3528 34.2642Z" fill="#441D39"/>
<path d="M42.2528 40.4836H40.7241C40.0438 40.4836 39.4435 40.2195 39.1233 39.7793C38.8912 39.4671 38.8272 39.0989 38.9392 38.7388C39.2914 37.5862 39.5875 36.4896 39.5875 36.4896C39.6436 36.2735 39.8677 36.1535 40.0758 36.2095C40.2919 36.2655 40.4199 36.4896 40.3559 36.6977C40.3559 36.6977 40.0598 37.8103 39.6996 38.9709C39.6676 39.0909 39.6836 39.195 39.7636 39.307C39.9317 39.5311 40.3079 39.6832 40.7241 39.6832H42.2528C42.4769 39.6832 42.653 39.8593 42.653 40.0834C42.653 40.3075 42.4769 40.4836 42.2528 40.4836V40.4836Z" fill="#FF9988"/>
<path d="M38.7787 45.694C38.0343 45.694 37.5461 45.6539 37.49 45.6459C37.2739 45.6299 37.1058 45.4298 37.1299 45.2137C37.1459 44.9896 37.346 44.8375 37.5621 44.8456C37.6101 44.8456 42.1243 45.2137 45.4699 43.5649C45.67 43.4689 45.9102 43.5489 46.0062 43.749C46.1023 43.9491 46.0222 44.1892 45.8221 44.2853C43.3729 45.4939 40.4355 45.686 38.7867 45.686L38.7787 45.694Z" fill="#FF9988"/>
<path d="M49.6804 37.2419C51.2232 37.2419 52.4738 36.9553 52.4738 36.6016C52.4738 36.248 51.2232 35.9613 49.6804 35.9613C48.1377 35.9613 46.8871 36.248 46.8871 36.6016C46.8871 36.9553 48.1377 37.2419 49.6804 37.2419Z" fill="#FF9988"/>
<path d="M33.3841 37.2419C34.9269 37.2419 36.1775 36.9553 36.1775 36.6016C36.1775 36.248 34.9269 35.9613 33.3841 35.9613C31.8414 35.9613 30.5908 36.248 30.5908 36.6016C30.5908 36.9553 31.8414 37.2419 33.3841 37.2419Z" fill="#FF9988"/>
<path d="M48.6874 59.4698C48.6874 59.4698 48.4553 56.7805 48.3112 56.6124C44.7014 57.757 37.8901 57.6289 32.5835 56.3963C32.5835 56.3963 32.1273 58.1892 25.46 62.8875L15.6312 67.5698L14.7267 83.8257H65.2635L63.5827 66.8654L48.6954 59.4698H48.6874Z" fill="#1C2642"/>
<path d="M46.5908 11.3261C46.5668 11.2861 46.5508 11.2381 46.5268 11.2061C46.0065 10.3416 37.9946 9.98946 37.3303 10.1976C36.794 10.3656 29.8866 14.3436 27.2613 15.8643C26.613 16.2405 26.1168 16.8248 25.8607 17.5292L20.53 31.9842C20.402 32.3284 20.3379 32.6966 20.3299 33.0728L20.1218 62.2231C20.1138 63.8719 19.2254 64.9604 20.8662 65.1285L28.0857 65.9529C29.6625 66.113 31.1112 65.1045 31.5114 63.5757L32.0717 60.3982C32.2638 59.6618 32.0397 59.0855 32.1277 58.1891C32.4319 55.1956 27.5495 48.2882 28.2458 46.1912C29.1102 43.5819 30.2948 40.7886 30.5029 37.2508C30.711 33.7131 28.4219 27.47 31.6475 19.8823C34.2408 13.7833 40.2597 14.9999 42.5168 15.7123C42.6849 15.7683 42.861 15.8003 43.0371 15.8243C43.0371 15.8243 56.0034 19.8423 56.3396 34.2654C56.3396 34.2654 56.8678 35.0818 57.204 34.1213C59.5171 27.454 56.5157 12.7588 46.5828 11.3341L46.5908 11.3261Z" fill="#EB3F3A"/>
<path d="M57.5159 38.0503C57.8165 38.0503 58.0602 37.8066 58.0602 37.5061C58.0602 37.2055 57.8165 36.9618 57.5159 36.9618C57.2154 36.9618 56.9717 37.2055 56.9717 37.5061C56.9717 37.8066 57.2154 38.0503 57.5159 38.0503Z" fill="white"/>
</g>
<defs>
<clipPath id="clip0_1546_410">
<rect width="80.0392" height="80.0392" rx="40.0196" fill="white"/>
</clipPath>
</defs>
</svg>
