<svg width="81" height="81" viewBox="0 0 81 81" fill="none" xmlns="http://www.w3.org/2000/svg">
<g clip-path="url(#clip0_1546_403)">
<rect width="80.0392" height="80.0392" rx="40.0196" fill="white"/>
<circle cx="40.0196" cy="40.0196" r="40.0196" fill="#C8C8EE"/>
<path d="M57.0918 30.9185C57.0918 30.9185 59.9252 30.5743 60.1813 33.2716C60.4374 35.9689 59.533 38.042 57.8522 38.9384C57.8522 38.9384 57.492 39.1145 56.6676 39.2585L57.0918 30.9265V30.9185Z" fill="#FFB69F"/>
<path d="M25.0362 30.9185C25.0362 30.9185 22.2028 30.5743 21.9466 33.2716C21.6905 35.9689 22.595 38.042 24.2758 38.9384C24.2758 38.9384 24.636 39.1145 25.4604 39.2585L25.0362 30.9265V30.9185Z" fill="#FFB69F"/>
<path d="M2.40118 83.8257C2.40118 83.8257 2.40118 72.5082 9.02843 70.2751C15.6557 68.042 30.631 59.4698 30.631 59.4698H40.764V83.8257H2.40118V83.8257Z" fill="#F49037"/>
<path d="M78.502 83.8257C78.502 83.8257 78.502 72.5082 71.8748 70.2751C65.2475 68.042 50.4323 59.4698 50.4323 59.4698H40.1392V83.8257H78.502V83.8257Z" fill="#F49037"/>
<path d="M33.1523 51.6409L32.2158 59.4688H48.6879L47.6634 51.6409H33.1523Z" fill="#FFB69F"/>
<path d="M40.4518 64.1522C45.0005 64.1522 48.6879 62.5504 48.6879 60.5745C48.6879 58.5985 45.0005 56.9967 40.4518 56.9967C35.9032 56.9967 32.2158 58.5985 32.2158 60.5745C32.2158 62.5504 35.9032 64.1522 40.4518 64.1522Z" fill="#FFB69F"/>
<path d="M32.5276 56.8754C32.5276 56.8754 43.7732 57.9079 47.7351 52.9774V47.3107L33.4801 48.6793L32.5276 56.8754V56.8754Z" fill="#FF9988"/>
<path d="M41.1242 53.9143C50.1906 53.9143 57.5403 44.5185 57.5403 32.9281C57.5403 21.3376 50.1906 11.9418 41.1242 11.9418C32.0579 11.9418 24.7082 21.3376 24.7082 32.9281C24.7082 44.5185 32.0579 53.9143 41.1242 53.9143Z" fill="#FFB69F"/>
<path d="M55.4593 16.1686C55.4593 16.1686 55.4753 16.1286 55.4593 16.1045C54.915 14.7999 54.2507 8.24469 43.5734 7.2522C40.8361 6.99608 36.9222 7.4523 34.441 8.63688C31.0393 10.2537 27.2374 11.1821 23.8758 11.1741C23.7317 11.1741 23.6757 11.3662 23.8037 11.4383L26.429 13.5273C26.5331 13.5833 26.5251 13.7354 26.413 13.7834L23.1154 14.7839C22.9953 14.8319 22.9953 15.008 23.1154 15.048C23.6517 15.2241 25.0123 15.8244 26.2449 16.2486C24.2279 19.8184 24.6922 24.9489 24.6922 31.1119C24.6922 31.1119 24.6281 37.499 26.7812 44.8226C29.1344 52.8265 34.2969 56.2602 41.5724 56.2842C49.3202 56.3162 53.3622 49.673 54.4428 47.3118C56.0916 43.6941 57.5083 36.9708 57.5163 32.9288C57.5163 32.9288 60.4937 22.7158 55.4432 16.1686H55.4593ZM48.88 45.8231C47.2792 46.6395 48.0876 42.3894 44.9021 42.2133C43.8376 42.1493 40.2198 41.9012 37.1783 42.1573C34.8652 42.3574 34.3049 44.4384 34.2008 45.4949C34.1528 45.9512 33.9927 46.1593 33.5605 45.9992C32.6001 45.647 30.5591 44.5105 29.5986 43.4539C28.6061 42.3654 26.8132 39.428 26.6451 33.2249L26.8212 24.3646C26.8212 24.3646 30.383 21.3791 30.9993 19.2581C30.9993 19.2581 46.9111 21.8033 51.5213 19.2581C51.5213 19.2581 53.4503 22.9479 55.5553 24.0604C56.2036 24.3966 56.0916 28.6067 56.0355 31.5121C55.9795 31.9043 55.9315 32.3525 55.9075 32.8808C55.4833 41.1808 50.4648 45.0147 48.872 45.8311L48.88 45.8231Z" fill="#B54D4D"/>
<path d="M48.8802 34.6082C49.4151 34.6082 49.8487 33.8557 49.8487 32.9274C49.8487 31.9991 49.4151 31.2466 48.8802 31.2466C48.3453 31.2466 47.9117 31.9991 47.9117 32.9274C47.9117 33.8557 48.3453 34.6082 48.8802 34.6082Z" fill="#441D39"/>
<path d="M34.3528 34.2643C34.8877 34.2643 35.3213 33.5118 35.3213 32.5835C35.3213 31.6552 34.8877 30.9026 34.3528 30.9026C33.8179 30.9026 33.3843 31.6552 33.3843 32.5835C33.3843 33.5118 33.8179 34.2643 34.3528 34.2643Z" fill="#441D39"/>
<path d="M42.2528 40.4839H40.7241C40.0438 40.4839 39.4435 40.2198 39.1233 39.7795C38.8912 39.4674 38.8272 39.0992 38.9392 38.739C39.2834 37.6345 39.7316 33.5125 39.7316 33.4725C39.7556 33.2483 39.9477 33.0963 40.1718 33.1203C40.3879 33.1443 40.548 33.3444 40.524 33.5605C40.508 33.7366 40.0598 37.7946 39.6996 38.9792C39.6676 39.0992 39.6836 39.2033 39.7636 39.3153C39.9317 39.5394 40.3079 39.6915 40.7241 39.6915H42.2528C42.4769 39.6915 42.653 39.8676 42.653 40.0917C42.653 40.3158 42.4769 40.4919 42.2528 40.4919V40.4839Z" fill="#FF9988"/>
<path d="M49.7281 37.242C51.2708 37.242 52.5215 36.9553 52.5215 36.6017C52.5215 36.248 51.2708 35.9614 49.7281 35.9614C48.1854 35.9614 46.9347 36.248 46.9347 36.6017C46.9347 36.9553 48.1854 37.242 49.7281 37.242Z" fill="#FF9988"/>
<path d="M33.424 37.242C34.9668 37.242 36.2174 36.9553 36.2174 36.6017C36.2174 36.248 34.9668 35.9614 33.424 35.9614C31.8813 35.9614 30.6306 36.248 30.6306 36.6017C30.6306 36.9553 31.8813 37.242 33.424 37.242Z" fill="#FF9988"/>
<path d="M52.2732 29.0216C49.6079 28.2372 47.5669 28.7334 46.3263 28.8935C45.7981 28.9575 45.686 28.3092 45.686 28.3092C45.582 27.869 46.1742 27.5649 46.5905 27.4848C47.9911 27.2287 49.784 27.1006 52.4413 28.0211C52.9536 28.1972 52.9856 28.6294 52.9856 28.6294C52.9296 29.1096 52.6254 29.1176 52.2732 29.0136V29.0216Z" fill="#B54D4D"/>
<path d="M30.8148 29.0707C33.4641 28.2383 35.5131 28.7025 36.7537 28.8386C37.2819 28.8946 37.386 28.2463 37.386 28.2463C37.482 27.8061 36.8817 27.5099 36.4655 27.4379C35.0569 27.2058 33.264 27.1017 30.6307 28.0702C30.1184 28.2543 30.0944 28.6865 30.0944 28.6865C30.1585 29.1667 30.4626 29.1667 30.8068 29.0627L30.8148 29.0707Z" fill="#B54D4D"/>
<path d="M41.0362 46.9837C39.1473 46.9837 37.6425 46.5835 37.5465 46.5595C37.3304 46.5035 37.2103 46.2794 37.2663 46.0713C37.3224 45.8632 37.5465 45.7351 37.7546 45.7911C37.7946 45.7991 41.4764 46.7756 44.4459 45.615C44.654 45.535 44.8861 45.639 44.9661 45.8391C45.0462 46.0472 44.9421 46.2794 44.742 46.3594C43.5174 46.8396 42.2048 46.9917 41.0442 46.9917L41.0362 46.9837Z" fill="#9B3D3D"/>
<path d="M32.568 56.9154L38.9391 61.4616L35.8576 68.8413L27.6135 61.1655L32.568 56.9154Z" fill="#FFA242"/>
<path d="M38.9391 61.4616L39.3233 64.1909L37.8746 64.0069L38.9391 61.4616Z" fill="#F49037"/>
<path d="M42.5731 61.3179L42.0128 64.1913L43.5816 63.9271L42.5731 61.3179Z" fill="#F49037"/>
<path d="M42.5731 61.3179L48.4079 57.0358L53.8746 61.4219L45.7426 69.5459L42.5731 61.3179Z" fill="#FFA242"/>
<path d="M42.0045 65.2398H39.3232V83.8169H42.0045V65.2398Z" fill="white"/>
<path d="M39.2671 63.8081L39.3231 65.4409C39.3231 65.4409 40.5717 65.9851 42.0044 65.4409L42.0445 63.9601L39.2591 63.8L39.2671 63.8081Z" fill="#FFB69F"/>
<path d="M42.0045 69.162H39.3232V69.9624H42.0045V69.162Z" fill="#D6D6D6"/>
<path d="M42.0045 72.7716H39.3232V73.572H42.0045V72.7716Z" fill="#D6D6D6"/>
<path d="M42.0045 76.3812H39.3232V77.1816H42.0045V76.3812Z" fill="#D6D6D6"/>
<path d="M42.0045 79.9908H39.3232V80.7912H42.0045V79.9908Z" fill="#D6D6D6"/>
<path d="M44.2859 73.5488C44.6749 73.5488 44.9902 73.2334 44.9902 72.8444C44.9902 72.4554 44.6749 72.1401 44.2859 72.1401C43.8969 72.1401 43.5815 72.4554 43.5815 72.8444C43.5815 73.2334 43.8969 73.5488 44.2859 73.5488Z" fill="#FFA242"/>
<path d="M44.2859 81.4073C44.6749 81.4073 44.9902 81.0919 44.9902 80.7029C44.9902 80.3139 44.6749 79.9986 44.2859 79.9986C43.8969 79.9986 43.5815 80.3139 43.5815 80.7029C43.5815 81.0919 43.8969 81.4073 44.2859 81.4073Z" fill="#FFA242"/>
</g>
<defs>
<clipPath id="clip0_1546_403">
<rect width="80.0392" height="80.0392" rx="40.0196" fill="white"/>
</clipPath>
</defs>
</svg>
