<svg width="81" height="81" viewBox="0 0 81 81" fill="none" xmlns="http://www.w3.org/2000/svg">
<g clip-path="url(#clip0_1546_402)">
<rect width="80.0392" height="80.0392" rx="40.0196" fill="white"/>
<circle cx="40.0196" cy="40.0196" r="40.0196" fill="#DEF4FF"/>
<path d="M70.6185 55.6185C73.3718 48.8952 68.8976 48.2069 64.2393 44.7332C59.581 41.2595 67.1688 39.7708 68.7215 36.201C70.2743 32.6313 67.5129 30.118 64.0712 28.2211C60.6216 26.3242 55.6111 18.9446 55.6111 18.9446L55.387 18.8405C57.9883 24.0591 57.8762 30.022 57.8362 30.9104C58.6686 30.9585 60.2214 31.3026 60.4135 33.2716C60.6696 35.9689 59.7651 38.0419 58.0843 38.9384C58.0843 38.9384 57.7642 39.0824 57.0838 39.2185C54.9948 47.7347 48.7758 53.9217 41.4201 53.9217C34.0645 53.9217 27.8375 47.7347 25.7565 39.2025V39.2585C24.9321 39.1144 24.5719 38.9384 24.5719 38.9384C22.8911 38.0419 21.9866 35.9689 22.2428 33.2716C22.4429 31.1425 24.2517 30.9104 25.0041 30.9024C24.9881 30.4062 24.9481 28.3972 25.3323 25.8359C24.0596 26.4602 20.2418 28.5253 20.3138 30.9024C20.4099 33.7598 21.2263 37.6817 17.5525 38.7463C13.8787 39.8108 13.7506 46.6541 15.2953 50.1278C16.8401 53.6015 17.8806 55.7866 13.0302 57.9077C8.17986 60.0287 13.5745 64.0627 13.0542 71.8105C12.534 79.5583 19.6015 76.1246 33.6724 73.5393C47.7432 70.954 57.8522 74.4037 65.4399 73.5393C73.0196 72.6749 72.1632 70.2737 69.4019 66.704C66.6405 63.1342 67.8491 62.3418 70.6105 55.6185H70.6185Z" fill="#441D39"/>
<path d="M43.7655 13.4064L55.3952 18.8411C53.2101 14.463 49.1121 10.6051 41.4284 10.7091C29.5986 10.541 26.2609 19.7696 25.3405 25.8365C25.5966 25.7085 25.7567 25.6364 25.7567 25.6364L43.7655 13.3984V13.4064Z" fill="#C1735C"/>
<path d="M72.1712 70.2751C65.544 68.042 48.9838 59.4698 48.9838 59.4698H32.5198C32.5198 59.4698 15.9677 68.042 9.33242 70.2751C2.70517 72.5082 2.70517 83.8257 2.70517 83.8257H78.8065C78.8065 83.8257 78.8065 72.5082 72.1792 70.2751H72.1712Z" fill="#4598C4"/>
<path d="M47.9676 51.6409H33.4565L32.376 60.7174L40.9081 79.0063L49.0881 60.2371L47.9676 51.6409Z" fill="#C1735C"/>
<path d="M33.4801 51.2891L32.8318 56.8759C32.8318 56.8759 44.0773 57.9084 48.0392 52.978V52.1375C46.0142 53.2821 43.7812 53.9224 41.42 53.9224C38.5386 53.9224 35.8333 52.9619 33.4801 51.2891Z" fill="#A5503C"/>
<path d="M60.4213 33.2724C60.2372 31.3034 58.6764 30.9592 57.844 30.9112C57.8761 30.0228 57.9961 24.0598 55.3948 18.8413L43.7651 13.4066L25.7563 25.6446C25.7563 25.6446 25.5962 25.7167 25.3401 25.8447C24.9479 28.406 24.9879 30.415 25.012 30.9112C24.2596 30.9112 22.4507 31.1513 22.2506 33.2804C21.9945 35.9777 22.8989 38.0507 24.5797 38.9471C24.5797 38.9471 24.9399 39.1232 25.7643 39.2673V39.2113C27.0289 44.3978 29.8303 48.7119 33.4881 51.2972C35.8413 52.97 38.5466 53.9305 41.428 53.9305C43.7811 53.9305 46.0222 53.2902 48.0472 52.1456C52.3453 49.7204 55.675 45.0141 57.0917 39.2273C57.78 39.0912 58.0922 38.9471 58.0922 38.9471C59.773 38.0507 60.6774 35.9777 60.4213 33.2804V33.2724Z" fill="#C1735C"/>
<path d="M30.1265 28.3663C32.8719 28.1743 35.209 28.8146 36.3936 29.1747C36.7538 29.2868 37.13 29.1427 37.2821 28.8626C37.4421 28.5344 37.242 28.1582 36.8418 28.0302C35.4972 27.614 33.064 26.9497 30.3667 27.582C29.9505 27.678 29.2061 27.9902 29.3822 28.3343C29.4862 28.4544 29.7664 28.3984 30.1265 28.3744V28.3663Z" fill="#441D39"/>
<path d="M52.8815 28.5018C50.1441 28.1977 47.791 28.7499 46.5904 29.0701C46.2302 29.1662 45.854 29.0141 45.718 28.7179C45.5659 28.3818 45.782 28.0056 46.1902 27.9015C47.5509 27.5334 50.0081 26.9651 52.6814 27.7014C53.0896 27.8135 53.8259 28.1577 53.6338 28.4938C53.5218 28.6139 53.2497 28.5418 52.8895 28.4938L52.8815 28.5018Z" fill="#441D39"/>
<path d="M49.1842 34.6082C49.7191 34.6082 50.1527 33.8557 50.1527 32.9274C50.1527 31.9991 49.7191 31.2466 49.1842 31.2466C48.6494 31.2466 48.2158 31.9991 48.2158 32.9274C48.2158 33.8557 48.6494 34.6082 49.1842 34.6082Z" fill="#441D39"/>
<path d="M34.6568 34.2643C35.1917 34.2643 35.6253 33.5118 35.6253 32.5835C35.6253 31.6552 35.1917 30.9026 34.6568 30.9026C34.1219 30.9026 33.6883 31.6552 33.6883 32.5835C33.6883 33.5118 34.1219 34.2643 34.6568 34.2643Z" fill="#441D39"/>
<path d="M42.5646 40.4837H41.0359C40.3555 40.4837 39.7552 40.2195 39.4351 39.7793C39.203 39.4672 39.1389 39.099 39.251 38.7388C39.6032 37.5943 39.8993 36.4977 39.8993 36.4897C39.9553 36.2736 40.1714 36.1535 40.3875 36.2096C40.6037 36.2656 40.7317 36.4897 40.6677 36.6978C40.6677 36.6978 40.3715 37.8104 40.0114 38.9709C39.9793 39.091 39.9954 39.195 40.0754 39.3071C40.2435 39.5392 40.6197 39.6833 41.0359 39.6833H42.5646C42.7887 39.6833 42.9648 39.8594 42.9648 40.0835C42.9648 40.3076 42.7887 40.4837 42.5646 40.4837V40.4837Z" fill="#A5503C"/>
<path d="M41.1003 45.5183C39.2353 45.5183 37.8187 45.2622 37.7146 45.2381C37.4985 45.1981 37.3544 44.99 37.3944 44.7739C37.4345 44.5578 37.6426 44.4137 37.8587 44.4538C37.8987 44.4538 42.3649 45.2782 45.8546 43.9735C46.0627 43.8935 46.2948 43.9975 46.3668 44.2056C46.4469 44.4137 46.3348 44.6458 46.1347 44.7179C44.4619 45.3422 42.629 45.5183 41.0923 45.5183H41.1003Z" fill="#A5503C"/>
<path d="M49.9844 37.242C51.5271 37.242 52.7778 36.9553 52.7778 36.6017C52.7778 36.248 51.5271 35.9614 49.9844 35.9614C48.4417 35.9614 47.191 36.248 47.191 36.6017C47.191 36.9553 48.4417 37.242 49.9844 37.242Z" fill="#AF5D4E"/>
<path d="M33.6881 37.242C35.2309 37.242 36.4815 36.9553 36.4815 36.6017C36.4815 36.248 35.2309 35.9614 33.6881 35.9614C32.1454 35.9614 30.8948 36.248 30.8948 36.6017C30.8948 36.9553 32.1454 37.242 33.6881 37.242Z" fill="#AF5D4E"/>
<path d="M24.4275 26.3647L24.4756 26.7409L22.2025 29.102L20.4576 34.2645C20.4576 34.2645 22.4986 40.8838 25.404 44.9898C28.3014 49.1038 26.9808 42.8928 25.7562 39.195C24.5316 35.4972 26.8207 35.4491 27.357 32.9279C27.6931 31.3351 27.1008 29.8704 26.6206 29.014C26.1964 27.5493 26.5726 25.7884 28.5816 25.2441C33.2879 23.9555 30.2064 16.1517 30.2064 16.1517C27.501 17.8885 25.1479 24.9 24.4355 26.3567L24.4275 26.3647Z" fill="#441D39"/>
<path d="M60.4612 29.102L58.7964 29.2301C58.116 25.7163 56.6193 18.7849 55.2667 18.0646C53.4418 17.0961 51.3687 18.6729 51.3687 18.6729C51.3687 18.6729 52.4093 24.3477 54.6904 25.6283C56.043 26.3887 56.035 28.1015 56.067 29.3661C55.2827 33.4561 53.2497 38.0024 57.8359 42.1084C62.8384 46.5826 63.9189 34.6087 63.9189 34.6087L60.4612 29.102V29.102Z" fill="#441D39"/>
<path d="M57.9645 11.9906C55.3792 7.69252 45.4383 5.56348 37.1623 7.2523L36.61 5.38739C36.5059 5.04322 36.1458 4.84312 35.7936 4.94717C35.4494 5.05123 35.2493 5.4114 35.3534 5.76357L35.8816 7.56446C29.4865 9.23728 22.8272 13.9996 19.9058 19.9865C16.8963 26.1496 24.4841 26.2856 24.4841 26.2856C30.9432 16.5449 55.6113 18.946 55.6113 18.946C57.044 18.6419 60.6218 16.4248 57.9565 11.9986L57.9645 11.9906Z" fill="#FF7C59"/>
<path d="M28.71 66.2404C28.5579 66.2404 28.4138 66.1603 28.3498 66.0163C28.2538 65.8162 28.3418 65.576 28.5339 65.48L31.5514 64.0313C31.7515 63.9352 31.9916 64.0233 32.0876 64.2234C32.1837 64.4235 32.0956 64.6636 31.9036 64.7596L28.8861 66.2084C28.83 66.2324 28.774 66.2484 28.71 66.2484V66.2404Z" fill="#2A5E70"/>
<path d="M30.0865 71.0023C29.9344 71.0023 29.7903 70.9222 29.7263 70.7781C29.6302 70.578 29.7183 70.3379 29.9104 70.2419L32.9278 68.7932C33.1279 68.6971 33.3681 68.7852 33.4641 68.9773C33.5602 69.1694 33.4721 69.4175 33.28 69.5135L30.2625 70.9622C30.2065 70.9862 30.1505 71.0023 30.0865 71.0023Z" fill="#2A5E70"/>
<path d="M31.8397 76.63C31.6876 76.63 31.5435 76.55 31.4795 76.4059C31.3834 76.2058 31.4715 75.9657 31.6636 75.8696L34.681 74.4209C34.8811 74.3249 35.1213 74.4129 35.2173 74.605C35.3134 74.8051 35.2253 75.0452 35.0332 75.1413L32.0157 76.59C31.9597 76.614 31.9037 76.63 31.8397 76.63Z" fill="#2A5E70"/>
<path d="M52.2576 66.2406C52.2016 66.2406 52.1376 66.2246 52.0816 66.2005L49.0641 64.7518C48.864 64.6558 48.7839 64.4157 48.88 64.2156C48.976 64.0155 49.2161 63.9274 49.4162 64.0235L52.4337 65.4722C52.6338 65.5682 52.7139 65.8083 52.6178 66.0084C52.5458 66.1525 52.4097 66.2326 52.2576 66.2326V66.2406Z" fill="#2A5E70"/>
<path d="M50.8812 71.002C50.8251 71.002 50.7611 70.986 50.7051 70.962L47.6876 69.5133C47.4875 69.4173 47.4075 69.1771 47.5035 68.977C47.5996 68.7769 47.8397 68.6969 48.0398 68.793L51.0573 70.2417C51.2574 70.3377 51.3374 70.5778 51.2413 70.7779C51.1693 70.922 51.0332 71.002 50.8812 71.002Z" fill="#2A5E70"/>
<path d="M49.128 76.6298C49.072 76.6298 49.0079 76.6138 48.9519 76.5898L45.9344 75.1411C45.7343 75.0451 45.6543 74.8049 45.7503 74.6048C45.8464 74.4047 46.0865 74.3247 46.2866 74.4208L49.3041 75.8695C49.5042 75.9655 49.5842 76.2056 49.4882 76.4057C49.4161 76.5498 49.2801 76.6298 49.128 76.6298Z" fill="#2A5E70"/>
</g>
<defs>
<clipPath id="clip0_1546_402">
<rect width="80.0392" height="80.0392" rx="40.0196" fill="white"/>
</clipPath>
</defs>
</svg>
