<svg width="20" height="20" viewBox="0 0 20 20" fill="none" xmlns="http://www.w3.org/2000/svg">
<path d="M10.625 5.83333C10.625 5.66757 10.5592 5.5086 10.442 5.39139C10.3248 5.27418 10.1658 5.20833 10 5.20833C9.83428 5.20833 9.67531 5.27418 9.5581 5.39139C9.44089 5.5086 9.37504 5.66757 9.37504 5.83333V9.37499H5.83337C5.66761 9.37499 5.50864 9.44084 5.39143 9.55805C5.27422 9.67526 5.20837 9.83423 5.20837 9.99999C5.20837 10.1658 5.27422 10.3247 5.39143 10.4419C5.50864 10.5591 5.66761 10.625 5.83337 10.625H9.37504V14.1667C9.37504 14.3324 9.44089 14.4914 9.5581 14.6086C9.67531 14.7258 9.83428 14.7917 10 14.7917C10.1658 14.7917 10.3248 14.7258 10.442 14.6086C10.5592 14.4914 10.625 14.3324 10.625 14.1667V10.625H14.1667C14.3325 10.625 14.4914 10.5591 14.6086 10.4419C14.7259 10.3247 14.7917 10.1658 14.7917 9.99999C14.7917 9.83423 14.7259 9.67526 14.6086 9.55805C14.4914 9.44084 14.3325 9.37499 14.1667 9.37499H10.625V5.83333Z" fill="#5C6772"/>
</svg>
