<svg width="18" height="18" viewBox="0 0 18 18" fill="none" xmlns="http://www.w3.org/2000/svg">
<path d="M6.37504 10.875H11.625M6.37504 7.12501H9.00004M10.6275 15.6675C13.7655 15.4598 16.2645 12.9248 16.47 9.74251C16.5098 9.12001 16.5098 8.47501 16.47 7.85251C16.2645 4.67101 13.7655 2.13751 10.6275 1.92826C9.54372 1.85684 8.45637 1.85684 7.37254 1.92826C4.23454 2.13676 1.73554 4.67101 1.53004 7.85326C1.49031 8.48264 1.49031 9.11389 1.53004 9.74326C1.60504 10.902 2.11729 11.9753 2.72104 12.8813C3.07129 13.515 2.84029 14.3063 2.47504 14.9985C2.21254 15.4973 2.08054 15.7463 2.18629 15.9263C2.29129 16.1063 2.52754 16.1123 2.99929 16.1235C3.93304 16.146 4.56229 15.882 5.06179 15.5138C5.34454 15.3045 5.48629 15.2003 5.58379 15.1883C5.68129 15.1763 5.87404 15.2558 6.25804 15.4133C6.60304 15.5558 7.00429 15.6435 7.37179 15.6683C8.44054 15.7388 9.55729 15.7388 10.6283 15.6683" stroke="#5C6772" stroke-width="1.5" stroke-linecap="round" stroke-linejoin="round"/>
</svg>
