<svg width="24" height="24" viewBox="0 0 24 24" fill="none" xmlns="http://www.w3.org/2000/svg">
<path fill-rule="evenodd" clip-rule="evenodd" d="M2 6C2 5.40326 2.23705 4.83097 2.65901 4.40901C3.08097 3.98705 3.65326 3.75 4.25 3.75H8.5C8.8493 3.75 9.19381 3.83133 9.50623 3.98754C9.81866 4.14375 10.0904 4.37056 10.3 4.65L11.65 6.45C11.7199 6.54315 11.8104 6.61875 11.9146 6.67082C12.0187 6.72289 12.1336 6.75 12.25 6.75H19.75C20.3467 6.75 20.919 6.98705 21.341 7.40901C21.7629 7.83097 22 8.40326 22 9V18C22 18.5967 21.7629 19.169 21.341 19.591C20.919 20.0129 20.3467 20.25 19.75 20.25H4.25C3.65326 20.25 3.08097 20.0129 2.65901 19.591C2.23705 19.169 2 18.5967 2 18V6ZM4.25 5.25C4.05109 5.25 3.86032 5.32902 3.71967 5.46967C3.57902 5.61032 3.5 5.80109 3.5 6V18C3.5 18.414 3.836 18.75 4.25 18.75H19.75C19.9489 18.75 20.1397 18.671 20.2803 18.5303C20.421 18.3897 20.5 18.1989 20.5 18V9C20.5 8.80109 20.421 8.61032 20.2803 8.46967C20.1397 8.32902 19.9489 8.25 19.75 8.25H12.25C11.9007 8.25 11.5562 8.16867 11.2438 8.01246C10.9313 7.85625 10.6596 7.62944 10.45 7.35L9.1 5.55C9.03014 5.45685 8.93955 5.38125 8.83541 5.32918C8.73127 5.27711 8.61643 5.25 8.5 5.25H4.25Z" fill="#5C6772"/>
</svg>
