<svg width="18" height="18" viewBox="0 0 18 18" fill="none" xmlns="http://www.w3.org/2000/svg">
<g clip-path="url(#clip0_1546_639)">
<path d="M9.00003 17.14C9.315 17.1327 9.61726 17.0143 9.85333 16.8057C10.0894 16.5971 10.2441 16.3117 10.29 16H7.66003C7.70727 16.3202 7.8692 16.6123 8.11569 16.822C8.36218 17.0317 8.67645 17.1447 9.00003 17.14Z" fill="#555555"/>
<path d="M16.255 13.915C15.7729 13.4852 15.3507 12.9924 15 12.45C14.6168 11.7014 14.3872 10.8837 14.325 10.045V7.57501C14.3228 7.275 14.2961 6.97566 14.245 6.68001C13.8514 6.60169 13.4731 6.45983 13.125 6.26001C13.2577 6.68745 13.3251 7.13246 13.325 7.58001V10.05C13.3857 11.0731 13.6671 12.071 14.15 12.975C14.4953 13.5219 14.9049 14.0255 15.37 14.475H2.56502C3.03012 14.0255 3.43971 13.5219 3.78502 12.975C4.26792 12.071 4.54937 11.0731 4.61002 10.05V7.57501C4.60739 6.99636 4.71893 6.42286 4.93825 5.88737C5.15756 5.35188 5.48035 4.86491 5.88813 4.45434C6.29591 4.04378 6.78067 3.71768 7.31466 3.49472C7.84864 3.27176 8.42136 3.15632 9.00002 3.15501C9.84695 3.15539 10.6749 3.40587 11.38 3.87501C11.3023 3.5895 11.2587 3.29579 11.25 3.00001V2.68501C10.7279 2.42836 10.1671 2.25944 9.59002 2.18501V1.55501C9.59002 1.37798 9.5197 1.2082 9.39452 1.08302C9.26934 0.957838 9.09956 0.887512 8.92252 0.887512C8.74549 0.887512 8.57571 0.957838 8.45053 1.08302C8.32535 1.2082 8.25502 1.37798 8.25502 1.55501V2.21001C6.96288 2.39229 5.78031 3.03588 4.92563 4.02198C4.07096 5.00807 3.60189 6.27008 3.60502 7.57501V10.045C3.5428 10.8837 3.31329 11.7014 2.93002 12.45C2.58547 12.9912 2.17012 13.4839 1.69502 13.915C1.64169 13.9619 1.59895 14.0195 1.56963 14.0842C1.54032 14.1489 1.52511 14.219 1.52502 14.29V14.97C1.52502 15.1026 1.5777 15.2298 1.67147 15.3236C1.76524 15.4173 1.89242 15.47 2.02502 15.47H15.925C16.0576 15.47 16.1848 15.4173 16.2786 15.3236C16.3723 15.2298 16.425 15.1026 16.425 14.97V14.29C16.4249 14.219 16.4097 14.1489 16.3804 14.0842C16.3511 14.0195 16.3084 13.9619 16.255 13.915Z" fill="#555555"/>
<path d="M15 5.5C16.3807 5.5 17.5 4.38071 17.5 3C17.5 1.61929 16.3807 0.5 15 0.5C13.6193 0.5 12.5 1.61929 12.5 3C12.5 4.38071 13.6193 5.5 15 5.5Z" fill="#F05A5A"/>
</g>
<defs>
<clipPath id="clip0_1546_639">
<rect width="18" height="18" fill="white"/>
</clipPath>
</defs>
</svg>
