<svg width="20" height="20" viewBox="0 0 20 20" fill="none" xmlns="http://www.w3.org/2000/svg">
<path d="M2.70837 7.70832H17.2917M6.13421 3.95832V2.29166M13.8425 3.95832V2.29166M14.375 3.95832H5.62504C4.85149 3.95832 4.10963 4.26561 3.56265 4.8126C3.01566 5.35958 2.70837 6.10144 2.70837 6.87499V14.7917C2.70837 15.5652 3.01566 16.3071 3.56265 16.8541C4.10963 17.401 4.85149 17.7083 5.62504 17.7083H14.375C15.1486 17.7083 15.8905 17.401 16.4374 16.8541C16.9844 16.3071 17.2917 15.5652 17.2917 14.7917V6.87499C17.2917 6.10144 16.9844 5.35958 16.4374 4.8126C15.8905 4.26561 15.1486 3.95832 14.375 3.95832Z" stroke="#5C6772" stroke-width="1.5" stroke-linecap="round" stroke-linejoin="round"/>
</svg>
