<svg width="20" height="20" viewBox="0 0 20 20" fill="none" xmlns="http://www.w3.org/2000/svg">
<path d="M2.5 8.33333C2.5 8.55435 2.5878 8.76631 2.74408 8.92259C2.90036 9.07887 3.11232 9.16667 3.33333 9.16667H10C10.221 9.16667 10.433 9.07887 10.5893 8.92259C10.7455 8.76631 10.8333 8.55435 10.8333 8.33333V3.33333C10.8333 3.11232 10.7455 2.90036 10.5893 2.74408C10.433 2.5878 10.221 2.5 10 2.5H3.33333C3.11232 2.5 2.90036 2.5878 2.74408 2.74408C2.5878 2.90036 2.5 3.11232 2.5 3.33333V8.33333ZM9.16667 16.6667C9.16667 16.8877 9.25446 17.0996 9.41074 17.2559C9.56702 17.4122 9.77899 17.5 10 17.5H16.6667C16.8877 17.5 17.0996 17.4122 17.2559 17.2559C17.4122 17.0996 17.5 16.8877 17.5 16.6667V11.6667C17.5 11.4457 17.4122 11.2337 17.2559 11.0774C17.0996 10.9211 16.8877 10.8333 16.6667 10.8333H10C9.77899 10.8333 9.56702 10.9211 9.41074 11.0774C9.25446 11.2337 9.16667 11.4457 9.16667 11.6667V16.6667ZM10.8333 12.5H15.8333V15.8333H10.8333V12.5ZM2.5 16.6667C2.5 16.8877 2.5878 17.0996 2.74408 17.2559C2.90036 17.4122 3.11232 17.5 3.33333 17.5H6.66667C6.88768 17.5 7.09964 17.4122 7.25592 17.2559C7.4122 17.0996 7.5 16.8877 7.5 16.6667V11.6667C7.5 11.4457 7.4122 11.2337 7.25592 11.0774C7.09964 10.9211 6.88768 10.8333 6.66667 10.8333H3.33333C3.11232 10.8333 2.90036 10.9211 2.74408 11.0774C2.5878 11.2337 2.5 11.4457 2.5 11.6667V16.6667ZM4.16667 15.8333V12.5H5.83333V15.8333H4.16667ZM4.16667 7.5V4.16667H9.16667V7.5H4.16667ZM16.6667 9.16667C16.8877 9.16667 17.0996 9.07887 17.2559 8.92259C17.4122 8.76631 17.5 8.55435 17.5 8.33333V3.33333C17.5 3.11232 17.4122 2.90036 17.2559 2.74408C17.0996 2.5878 16.8877 2.5 16.6667 2.5H13.3333C13.1123 2.5 12.9004 2.5878 12.7441 2.74408C12.5878 2.90036 12.5 3.11232 12.5 3.33333V8.33333C12.5 8.55435 12.5878 8.76631 12.7441 8.92259C12.9004 9.07887 13.1123 9.16667 13.3333 9.16667H16.6667ZM15.8333 7.5H14.1667V4.16667H15.8333V7.5Z" fill="#5353CB"/>
</svg>
