<svg width="20" height="20" viewBox="0 0 20 20" fill="none" xmlns="http://www.w3.org/2000/svg">
<path d="M11.0776 3.30002C11.4457 2.92601 11.8842 2.62858 12.3678 2.42487C12.8514 2.22116 13.3706 2.11521 13.8953 2.11313C14.4201 2.11105 14.9401 2.21287 15.4253 2.41273C15.9106 2.61258 16.3514 2.90652 16.7225 3.27759C17.0935 3.64866 17.3875 4.08952 17.5873 4.57474C17.7872 5.05997 17.889 5.57996 17.8869 6.10472C17.8849 6.62949 17.7789 7.14865 17.5752 7.63228C17.3715 8.1159 17.0741 8.55441 16.7001 8.92252L14.1751 11.4475L12.9959 10.27L15.5209 7.74418C15.9541 7.31122 16.1975 6.7239 16.1977 6.11144C16.1978 5.49898 15.9547 4.91154 15.5217 4.47835C15.0888 4.04516 14.5014 3.80171 13.889 3.80156C13.2765 3.8014 12.6891 4.04455 12.2559 4.47752L9.73006 7.00335L8.55172 5.82501L11.0776 3.30002ZM12.8442 8.33335L8.33172 12.845L7.15339 11.6667L11.6651 7.15502L12.8442 8.33335ZM7.00256 9.73002L4.47756 12.2558C4.04437 12.689 3.80101 13.2766 3.80101 13.8892C3.80101 14.5018 4.04437 15.0893 4.47756 15.5225C4.91074 15.9557 5.49827 16.1991 6.11089 16.1991C6.72351 16.1991 7.31104 15.9557 7.74422 15.5225L10.2692 12.9967L11.4476 14.175L8.92256 16.7C8.17697 17.4457 7.16569 17.8647 6.11118 17.8648C5.05668 17.8648 4.04534 17.446 3.29964 16.7004C2.55394 15.9548 2.13497 14.9436 2.13489 13.8891C2.13481 12.8346 2.55363 11.8232 3.29922 11.0775L5.82422 8.55251L7.00256 9.73002Z" fill="#5C6772"/>
</svg>
